<?xml version="1.0" standalone="no"?>
<!DOCTYPE svg PUBLIC "-//W3C//DTD SVG 20010904//EN"
 "http://www.w3.org/TR/2001/REC-SVG-20010904/DTD/svg10.dtd">
<svg version="1.0" xmlns="http://www.w3.org/2000/svg"
 width="260.000000pt" height="260.000000pt" viewBox="0 0 260.000000 260.000000"
 preserveAspectRatio="xMidYMid meet">
<metadata>
Created by potrace 1.11, written by Peter Selinger 2001-2013
</metadata>
<g transform="translate(0.000000,260.000000) scale(0.100000,-0.100000)"
fill="#000000" stroke="none">
<path d="M1948 2543 c-41 -78 -69 -189 -76 -303 l-7 -105 -76 80 c-42 44 -109
117 -148 162 -99 112 -113 116 -252 70 -57 -19 -146 -56 -198 -81 -52 -25
-101 -46 -108 -46 -8 0 -28 -7 -45 -16 l-30 -16 -45 51 c-46 53 -130 113 -173
126 -14 4 -44 18 -67 31 -53 30 -74 30 -112 -1 -46 -39 -200 -267 -270 -400
-35 -65 -83 -144 -108 -174 -66 -81 -79 -112 -123 -303 -58 -244 -60 -262 -60
-464 0 -218 15 -311 69 -429 60 -128 203 -298 317 -375 27 -19 64 -46 82 -62
75 -65 381 -190 491 -201 22 -2 46 -8 53 -14 60 -46 328 -80 399 -50 34 15 83
28 194 52 87 19 347 129 365 154 3 4 30 26 60 48 91 66 273 253 329 336 29 42
72 119 97 171 l44 93 0 126 c0 113 -3 135 -28 204 -25 73 -27 83 -18 158 17
144 -27 293 -170 575 -40 80 -94 170 -118 200 -25 30 -59 79 -75 110 -35 67
-121 276 -121 295 0 15 -26 45 -39 45 -4 0 -19 -21 -33 -47z m57 -41 c5 -16 3
-22 -7 -20 -15 3 -27 37 -20 57 6 15 14 4 27 -37z m-1292 -28 c97 -50 307
-229 307 -262 0 -6 -25 -24 -55 -41 -30 -17 -83 -55 -117 -84 -115 -96 -139
-111 -149 -96 -18 28 -22 61 -8 71 11 8 11 9 -2 5 -21 -7 -42 36 -34 67 5 18
4 19 -5 4 -6 -10 -17 -15 -26 -11 -13 5 -13 7 -2 14 10 7 9 9 -3 9 -24 0 -31
28 -14 53 14 21 15 21 16 2 0 -20 1 -20 9 0 10 25 -4 42 -23 27 -8 -7 -17 -9
-20 -5 -4 3 -17 -2 -29 -13 -19 -17 -21 -17 -15 -1 6 15 -3 22 -18 15 -2 -2
-11 6 -19 17 -9 11 -16 14 -16 8 0 -18 -20 -16 -20 2 0 8 9 15 20 15 11 0 20
-4 20 -8 0 -8 43 -32 55 -32 3 0 5 8 5 18 1 15 2 15 15 -2 8 -11 15 -15 15 -8
0 6 -11 23 -25 38 -14 15 -25 22 -25 15 0 -6 -5 -11 -11 -11 -5 0 -7 5 -4 10
3 6 1 10 -4 10 -18 0 -12 29 9 50 11 11 20 24 20 30 0 5 7 13 16 18 9 5 14 11
12 13 -1 2 10 21 26 42 31 41 51 45 99 21z m861 -62 c15 -15 75 -81 131 -147
57 -66 117 -132 133 -147 16 -15 32 -39 34 -53 5 -26 -1 -32 -17 -16 -6 5 -35
16 -65 26 -30 9 -72 28 -92 41 -46 29 -60 30 -84 3 -10 -11 -38 -34 -62 -50
l-44 -30 -42 38 c-22 21 -57 48 -76 60 -19 12 -47 38 -62 57 -29 36 -126 106
-148 106 -7 0 -39 -16 -72 -36 -48 -29 -61 -34 -73 -24 -30 25 -13 37 93 70
59 18 154 55 212 83 58 27 116 53 130 57 32 9 67 -4 104 -38z m436 27 c0 -5
-4 -9 -10 -9 -5 0 -10 7 -10 16 0 8 5 12 10 9 6 -3 10 -10 10 -16z m41 -56 c6
-21 39 -85 72 -143 33 -58 84 -151 113 -208 29 -57 67 -119 84 -138 34 -40 74
-115 100 -188 9 -28 21 -60 25 -71 8 -17 7 -18 -7 -8 -8 7 -17 11 -20 8 -2 -3
-4 5 -4 18 1 17 -4 22 -21 21 -13 0 -23 3 -23 8 0 4 4 8 9 8 5 0 7 9 4 19 -6
22 -36 38 -41 22 -6 -17 -22 -2 -22 20 0 10 -5 19 -11 19 -6 0 -8 -7 -5 -16 4
-10 1 -14 -6 -11 -8 2 -13 22 -12 53 1 27 0 41 -3 32 -2 -10 -9 -18 -14 -18
-6 0 -7 -4 -4 -10 3 -5 1 -18 -4 -27 -6 -10 -11 -13 -11 -8 0 6 -5 3 -10 -5
-7 -10 -10 -11 -10 -2 0 7 6 15 13 18 15 5 20 71 6 80 -5 3 -9 -2 -9 -10 0 -9
-4 -16 -10 -16 -16 0 -12 15 10 35 23 21 26 35 6 35 -8 0 -17 -8 -19 -17 -3
-10 -4 -3 -3 15 2 17 6 35 9 39 4 3 7 11 7 17 0 6 -4 5 -9 -2 -6 -10 -10 -9
-14 7 -3 12 -1 21 4 21 5 0 9 9 9 20 0 11 -4 20 -10 20 -5 0 -10 6 -10 14 0 7
-6 19 -14 25 -10 9 -15 8 -19 -4 -8 -20 -34 -9 -41 18 -4 19 -3 20 7 6 10 -14
14 -14 25 -3 16 18 15 27 -3 21 -10 -5 -16 4 -21 31 -4 20 -10 42 -14 47 -4 6
-13 27 -19 48 -7 20 -17 37 -22 37 -5 0 -9 6 -9 13 0 7 -11 37 -25 65 -23 47
-32 82 -21 82 3 0 10 -17 17 -37z m-833 -130 c17 -10 94 -79 171 -153 76 -74
172 -166 212 -203 62 -57 66 -63 27 -36 -26 17 -78 63 -115 101 -55 56 -143
132 -228 195 -6 5 -30 25 -54 46 -34 31 -49 38 -72 35 -32 -5 -38 6 -11 21 24
14 33 14 70 -6z m809 -25 c-3 -8 -6 -5 -6 6 -1 11 2 17 5 13 3 -3 4 -12 1 -19z
m-1578 -79 c-16 -14 -17 -18 -5 -22 8 -3 17 -1 19 6 9 24 17 -1 11 -33 l-7
-32 -13 23 c-16 29 -18 20 -4 -16 9 -23 8 -26 -5 -21 -9 3 -14 2 -10 -3 5 -9
-66 -54 -105 -66 -19 -6 -19 -6 0 37 12 27 25 42 35 40 8 -2 15 4 15 13 0 9
-5 13 -11 9 -8 -4 -8 0 0 15 7 11 15 21 18 21 3 0 4 -3 0 -6 -7 -8 18 -34 32
-34 14 0 7 46 -9 65 -9 11 -7 12 10 8 15 -4 21 -1 19 8 -1 8 2 28 6 44 l9 30
7 -35 c6 -27 3 -37 -12 -51z m38 29 c-3 -8 -6 -5 -6 6 -1 11 2 17 5 13 3 -3 4
-12 1 -19z m33 12 c0 -5 -4 -10 -10 -10 -5 0 -10 5 -10 10 0 6 5 10 10 10 6 0
10 -4 10 -10z m52 -20 c-5 -35 -25 -35 -30 -1 -2 14 0 21 6 17 6 -4 13 -2 17
4 10 16 12 12 7 -20z m-47 -10 c-3 -5 -12 -10 -18 -10 -7 0 -6 4 3 10 19 12
23 12 15 0z m1297 -124 c26 -10 50 -21 52 -24 2 -4 7 -30 11 -58 l6 -51 -34
-6 c-19 -3 -57 -21 -84 -41 l-48 -35 -98 100 c-54 56 -97 102 -95 105 2 2 28
21 58 42 l54 39 66 -27 c36 -15 86 -35 112 -44z m-1232 49 c13 -15 5 -39 -11
-29 -5 3 -7 10 -3 15 3 5 2 9 -3 8 -17 -3 -24 1 -18 11 9 14 21 12 35 -5z
m1494 -46 c4 -4 0 -6 -10 -6 -15 2 -18 -4 -16 -25 2 -17 -1 -28 -8 -28 -7 0
-10 7 -6 15 3 8 1 15 -5 15 -6 0 -7 4 -4 10 3 5 1 19 -5 30 -10 19 -9 19 17 8
15 -6 32 -15 37 -19z m-1456 1 c7 -11 9 -20 4 -20 -10 0 -32 22 -32 32 0 15
15 8 28 -12z m218 -3 c-11 -7 -28 -20 -38 -29 -10 -10 -18 -14 -18 -9 0 11 51
50 65 50 6 0 1 -6 -9 -12z m1288 7 c9 -3 16 -17 16 -29 0 -13 5 -25 12 -27 14
-5 21 -48 7 -48 -5 0 -8 4 -5 9 3 5 0 14 -7 19 -10 9 -13 5 -11 -16 1 -21 -3
-28 -16 -28 -15 0 -18 6 -14 28 13 93 13 90 -2 77 -14 -11 -21 1 -7 14 8 8 8
8 27 1z m57 -29 c-1 -15 -24 -12 -29 3 -3 9 2 13 12 10 10 -1 17 -7 17 -13z
m-1521 -37 c29 -47 25 -59 -5 -16 -14 20 -25 39 -25 42 0 14 12 3 30 -26z
m355 -10 c-14 -41 -14 -42 3 -23 15 18 55 26 67 14 2 -3 10 -26 16 -51 12 -43
11 -49 -6 -68 -16 -18 -17 -23 -5 -30 8 -6 11 -10 5 -10 -5 0 -4 -4 3 -9 8 -4
16 -28 19 -52 3 -24 11 -47 17 -51 8 -5 7 -8 -1 -8 -7 0 -13 -4 -13 -10 0 -5
7 -7 15 -4 10 4 15 0 16 -12 0 -11 3 -14 6 -6 2 6 12 12 20 12 10 0 13 -6 9
-17 -6 -15 -5 -15 13 1 11 10 18 22 16 27 -3 4 -1 10 4 13 5 4 12 2 15 -3 4
-5 2 -12 -3 -16 -6 -3 -7 -13 -4 -21 5 -13 8 -13 15 -2 7 10 8 9 4 -5 -3 -9
-3 -32 1 -50 l7 -32 8 30 c4 17 5 37 3 46 -3 9 1 22 10 29 27 22 33 -18 10
-72 -5 -12 -2 -16 12 -13 10 2 25 4 33 5 10 1 11 3 3 6 -7 3 -9 12 -6 20 9 23
23 16 23 -11 0 -14 5 -25 11 -25 5 0 8 -4 5 -9 -3 -5 0 -8 7 -7 6 0 13 -3 14
-9 2 -5 -4 -10 -11 -10 -8 0 -18 -4 -22 -8 -4 -4 -2 -7 5 -7 13 0 11 -52 -4
-113 -6 -24 -5 -26 11 -20 16 6 17 5 4 -9 -8 -9 -17 -14 -20 -13 -3 2 -4 -12
-2 -30 4 -29 1 -33 -15 -29 -17 5 -19 1 -17 -32 2 -20 -1 -44 -6 -53 -8 -13
-10 -11 -10 9 0 20 -2 22 -10 9 -5 -9 -7 -26 -5 -39 5 -26 -23 -80 -42 -80 -7
0 -13 -5 -13 -12 0 -6 -18 -35 -41 -65 -44 -58 -68 -109 -70 -145 -1 -13 -5
-3 -9 22 -11 59 -16 82 -22 100 -87 263 -136 396 -172 465 -9 17 -16 35 -16
42 0 14 -66 185 -86 224 -12 24 -12 28 3 33 21 8 35 -12 28 -41 -6 -27 0 -29
22 -8 14 14 38 12 29 -3 -2 -4 2 -12 9 -19 10 -10 15 -9 19 4 4 9 4 18 1 21
-3 3 -5 -1 -5 -9 -1 -8 -10 3 -21 24 -11 21 -24 35 -29 32 -6 -4 -10 -1 -10 4
0 14 6 14 32 0 18 -10 20 -9 15 5 -4 9 -2 16 2 16 5 0 12 -6 14 -12 3 -8 6 -6
6 4 1 10 11 27 24 39 12 12 16 19 10 15 -7 -4 -17 -5 -23 -1 -12 8 9 55 25 55
8 0 12 14 11 38 -1 30 2 36 17 34 10 -2 17 3 17 13 0 8 4 15 10 15 5 0 3 -19
-5 -42z m127 -10 c-8 -8 -9 -4 -5 13 4 13 8 18 11 10 2 -7 -1 -18 -6 -23z
m-787 -8 c-16 -16 -35 -30 -43 -30 -9 0 -30 -11 -48 -25 -34 -26 -44 -30 -44
-17 0 14 52 63 63 59 6 -2 29 7 52 20 52 30 54 29 20 -7z m405 27 c0 -2 -10
-12 -22 -23 l-23 -19 19 23 c18 21 26 27 26 19z m431 -20 c-10 -9 -11 -8 -5 6
3 10 9 15 12 12 3 -3 0 -11 -7 -18z m44 -25 c-11 -10 -21 -28 -23 -42 -2 -20
-1 -22 7 -10 9 12 11 9 11 -12 0 -16 -5 -28 -12 -28 -9 0 -9 -3 0 -12 18 -18
15 -30 -6 -24 -11 4 -23 -2 -32 -14 -8 -11 -20 -20 -28 -20 -7 0 2 14 19 31
23 22 28 33 19 39 -9 6 -9 9 -1 15 7 4 11 14 10 23 -4 27 11 62 27 62 8 0 14
5 14 12 0 6 3 8 8 4 4 -4 -2 -15 -13 -24z m951 -11 c-4 -6 -14 -7 -23 -4 -15
6 -14 7 3 13 22 9 29 6 20 -9z m-17 -54 c1 -5 -3 -5 -9 -2 -5 3 -10 16 -9 28
0 21 1 21 9 2 5 -11 9 -24 9 -28z m-59 13 c0 -5 -5 -10 -11 -10 -5 0 -7 5 -4
10 3 6 8 10 11 10 2 0 4 -4 4 -10z m-1318 -25 c-4 -18 -1 -18 24 5 15 14 24
19 20 13 -5 -9 0 -13 13 -13 12 0 21 -7 21 -15 0 -8 -6 -12 -13 -10 -6 3 -17
-5 -22 -17 -10 -24 -45 -38 -45 -18 0 6 5 8 12 4 7 -4 3 6 -8 22 -36 52 -38
56 -18 52 13 -2 18 -11 16 -23z m383 15 c3 -5 1 -10 -4 -10 -6 0 -11 5 -11 10
0 6 2 10 4 10 3 0 8 -4 11 -10z m340 0 c3 -5 1 -10 -4 -10 -6 0 -11 5 -11 10
0 6 2 10 4 10 3 0 8 -4 11 -10z m27 -32 c-6 -6 -15 -8 -19 -4 -4 4 -1 11 7 16
19 12 27 3 12 -12z m-295 -20 c-3 -7 -5 -2 -5 12 0 14 2 19 5 13 2 -7 2 -19 0
-25z m96 -2 c15 -12 16 -14 2 -20 -9 -3 -15 0 -15 8 0 8 -6 17 -12 19 -7 3 -8
6 -3 6 6 0 18 -6 28 -13z m227 -11 c0 -18 -4 -23 -16 -18 -14 5 -15 3 -5 -14
5 -11 8 -31 5 -44 -4 -13 -7 -33 -7 -44 -2 -24 -37 -66 -49 -59 -5 3 -8 0 -6
-7 1 -8 -12 -44 -31 -81 -33 -68 -48 -86 -38 -48 3 11 0 26 -6 33 -7 6 -14 21
-15 32 -2 11 -9 23 -14 26 -6 4 -8 11 -4 17 3 6 2 13 -4 17 -5 3 -10 1 -10 -6
0 -7 -3 -10 -6 -7 -3 4 0 16 6 29 11 19 10 25 -6 37 -18 14 -18 14 -1 8 10 -3
23 -6 28 -6 5 0 9 -16 9 -35 l0 -36 25 18 c14 10 28 30 31 46 7 27 36 38 49
17 3 -5 12 -10 18 -10 8 0 8 3 -1 9 -11 7 -11 11 2 24 17 17 22 52 7 42 -5 -3
-12 -1 -16 5 -3 5 -1 10 5 10 6 0 8 5 4 12 -4 6 1 17 11 25 11 7 15 13 11 13
-4 0 -4 5 -1 10 11 18 25 10 25 -15z m44 -7 c-5 -16 -3 -20 9 -15 9 3 17 -1
20 -12 3 -11 -9 -28 -32 -48 l-36 -30 0 36 c1 20 4 42 9 49 4 7 5 19 2 27 -2
7 0 16 7 18 20 7 28 -3 21 -25z m-210 15 c-5 -5 -12 -12 -16 -18 -4 -6 -8 -2
-8 8 0 9 7 17 17 17 9 0 12 -3 7 -7z m-151 -45 c-3 -53 -3 -54 -13 -38 -6 10
-10 11 -10 3 0 -7 -4 -13 -9 -13 -5 0 -7 10 -3 22 3 14 2 19 -6 14 -7 -4 -12
-2 -12 4 0 7 8 9 19 5 13 -4 20 0 24 15 8 30 12 24 10 -12z m107 6 c0 -8 -5
-12 -10 -9 -6 4 -8 11 -5 16 9 14 15 11 15 -7z m67 -59 c0 -8 -4 -12 -9 -9 -4
3 -8 9 -8 15 0 5 4 9 8 9 5 0 9 -7 9 -15z m800 -9 c0 -11 -4 -12 -18 -3 -10 6
-16 14 -13 19 7 11 31 -1 31 -16z m227 -136 c4 -25 3 -31 -4 -20 -5 8 -10 26
-10 39 0 32 6 24 14 -19z m-1052 -141 c-10 -16 -20 -29 -24 -29 -14 0 -8 31 6
36 8 3 12 12 9 20 -3 10 0 12 10 8 13 -5 13 -9 -1 -35z m-71 -162 c-10 -9 -11
-8 -5 6 3 10 9 15 12 12 3 -3 0 -11 -7 -18z m-46 -186 c-3 -6 -11 -11 -17 -11
-6 0 -6 6 2 15 14 17 26 13 15 -4z m-41 -63 c-24 -46 -97 -149 -102 -143 -2 2
16 35 40 72 25 37 50 79 57 91 7 13 15 21 18 19 2 -3 -3 -20 -13 -39z m-117
-200 c-3 -8 -6 -5 -6 6 -1 11 2 17 5 13 3 -3 4 -12 1 -19z m1130 -80 c-3 -8
-6 -5 -6 6 -1 11 2 17 5 13 3 -3 4 -12 1 -19z m-10 -40 c-3 -8 -6 -5 -6 6 -1
11 2 17 5 13 3 -3 4 -12 1 -19z m-97 -44 c0 -8 -5 -12 -10 -9 -6 4 -8 11 -5
16 9 14 15 11 15 -7z m-12 -59 c-3 -3 -9 2 -12 12 -6 14 -5 15 5 6 7 -7 10
-15 7 -18z m-71 -7 c2 -18 0 -20 -7 -8 -12 18 -13 30 -2 30 4 0 9 -10 9 -22z
m-60 -50 c-3 -8 -6 -5 -6 6 -1 11 2 17 5 13 3 -3 4 -12 1 -19z m41 2 c-14 -22
-24 -19 -15 5 4 8 11 15 17 15 6 0 6 -7 -2 -20z m-41 -42 c-3 -8 -6 -5 -6 6
-1 11 2 17 5 13 3 -3 4 -12 1 -19z m-225 -5 c7 -86 5 -114 -7 -109 -8 3 -16 0
-19 -7 -4 -7 -3 1 0 18 3 16 11 33 17 37 8 5 6 8 -5 8 -10 0 -18 5 -18 11 0 6
7 9 15 5 8 -3 15 -1 15 4 0 6 -4 10 -10 10 -5 0 -10 9 -10 20 0 25 19 27 22 3z
m48 -12 c0 -6 -4 -13 -10 -16 -5 -3 -10 1 -10 9 0 9 5 16 10 16 6 0 10 -4 10
-9z m37 -27 c-3 -3 -12 -4 -19 -1 -8 3 -5 6 6 6 11 1 17 -2 13 -5z m-137 -40
c0 -13 -5 -24 -11 -24 -5 0 -8 4 -5 8 3 5 -1 9 -9 9 -18 0 -18 -2 -4 -30 10
-21 10 -21 -5 -3 -17 21 -19 35 -10 59 9 24 44 8 44 -19z m-73 -76 c-3 -8 -6
-5 -6 6 -1 11 2 17 5 13 3 -3 4 -12 1 -19z m77 7 c-4 -8 -8 -15 -10 -15 -2 0
-4 7 -4 15 0 8 4 15 10 15 5 0 7 -7 4 -15z m-30 -22 c-10 -40 -14 -41 -14 -5
0 18 5 32 10 32 6 0 8 -11 4 -27z m196 13 c0 -3 -4 -8 -10 -11 -5 -3 -10 -1
-10 4 0 6 5 11 10 11 6 0 10 -2 10 -4z m-246 -23 c-5 -5 -12 -12 -16 -18 -4
-6 -8 -2 -8 8 0 9 7 17 17 17 9 0 12 -3 7 -7z m-479 -233 c33 -10 76 -21 95
-23 25 -3 19 -4 -21 -5 -60 -2 -183 33 -173 50 3 5 13 6 23 3 9 -4 43 -15 76
-25z"/>
<path d="M697 2269 c6 -23 9 -24 16 -5 3 8 0 17 -7 19 -10 4 -12 -1 -9 -14z"/>
<path d="M655 2250 c-3 -6 1 -7 9 -4 18 7 21 14 7 14 -6 0 -13 -4 -16 -10z"/>
<path d="M2325 1821 c-3 -5 -1 -12 5 -16 5 -3 10 1 10 9 0 18 -6 21 -15 7z"/>
<path d="M1086 1917 c3 -10 9 -15 12 -12 3 3 0 11 -7 18 -10 9 -11 8 -5 -6z"/>
<path d="M1111 1743 c-1 -6 -4 -20 -7 -30 -5 -17 -5 -17 6 0 6 10 9 23 6 30
-3 9 -5 9 -5 0z"/>
<path d="M1201 1607 c2 -1 12 -9 22 -16 14 -12 17 -11 17 3 0 10 -8 16 -22 16
-12 0 -19 -1 -17 -3z"/>
<path d="M1231 1554 c0 -11 3 -14 6 -6 3 7 2 16 -1 19 -3 4 -6 -2 -5 -13z"/>
<path d="M1297 1530 c-3 -11 -2 -20 3 -20 4 0 10 9 13 20 3 11 2 20 -3 20 -4
0 -10 -9 -13 -20z"/>
<path d="M1217 1511 c4 -16 8 -17 18 -8 9 9 10 14 1 19 -19 13 -24 9 -19 -11z"/>
<path d="M1260 1320 c0 -5 7 -10 16 -10 8 0 12 5 9 10 -3 6 -10 10 -16 10 -5
0 -9 -4 -9 -10z"/>
<path d="M1205 1310 c-3 -5 -1 -10 4 -10 6 0 11 5 11 10 0 6 -2 10 -4 10 -3 0
-8 -4 -11 -10z"/>
<path d="M1225 1230 c-3 -5 1 -10 10 -10 9 0 13 5 10 10 -3 6 -8 10 -10 10 -2
0 -7 -4 -10 -10z"/>
<path d="M1125 1020 c-3 -6 1 -7 9 -4 18 7 21 14 7 14 -6 0 -13 -4 -16 -10z"/>
<path d="M1481 1664 c0 -11 3 -14 6 -6 3 7 2 16 -1 19 -3 4 -6 -2 -5 -13z"/>
<path d="M1470 1621 c0 -6 4 -13 10 -16 6 -3 7 1 4 9 -7 18 -14 21 -14 7z"/>
<path d="M1441 1596 c-9 -11 -7 -15 8 -19 14 -3 17 0 14 14 -6 23 -7 23 -22 5z"/>
</g>
</svg>
